<svg viewBox="0 0 534 534" xmlns="http://www.w3.org/2000/svg" fill-rule="evenodd" clip-rule="evenodd" stroke-linejoin="round" stroke-miterlimit="2"><path d="M430.417 210.417v102.916c0 30.834-25 56.25-56.25 56.25H140.833c-30.833 0-55.833-25-55.833-56.25V210.417c0 86.25 345.417-76.25 345.417 0z" fill="#dbdbdd"/><path d="M140.833 388.333h233.334c41.25 0 74.583-33.333 74.583-75 51.667 0 84.167-46.25 84.167-102.916 0-56.667-32.5-75-84.167-75V107.5H66.25v205.833c0 41.25 33.333 75 74.583 75zM449.167 163.75c36.25 0 55.833 5.417 55.833 46.667s-20 75-55.833 75V163.75zm-355-27.917h326.666V313.75c0 30.833-15.833 46.667-46.666 46.667H140.833c-30.833 0-46.666-15.834-46.666-46.667V135.833zM486.25 397.5H19.583a18.672 18.672 0 00-18.75 18.75c0 10.417 8.334 9.167 18.75 9.167h467.084c10.416 0 18.75.833 18.75-9.167-.417-10.417-8.75-18.75-19.167-18.75z" fill="#fff" fill-rule="nonzero" stroke="#575757" stroke-width=".63"/></svg>